<svg width="100" height="100" viewBox="0 0 100 100" fill="none" xmlns="http://www.w3.org/2000/svg">
  <style>
    :root {
      --primary-hsl: 173.5 80.1% 38.2%; /* Teal - Light Mode */
      --primary-foreground-hsl: 180 100% 97%; /* Very Light Cyan/White - Light Mode */
    }
    @media (prefers-color-scheme: dark) {
      :root {
        --primary-hsl: 174.6 73.3% 46.5%; /* Brighter Teal - Dark Mode */
        --primary-foreground-hsl: 180 100% 97%; /* Very Light Cyan/White - Dark Mode */
      }
    }
    /* Apply colors using classes */
    .bg-primary { fill: hsl(var(--primary-hsl)); }
    .stroke-primary-fg { stroke: hsl(var(--primary-foreground-hsl)); }
  </style>

  <circle cx="50" cy="50" r="46" class="bg-primary" stroke="hsl(var(--primary-foreground-hsl) / 0.5)" stroke-width="1"/>

  <g transform="translate(20, 20) scale(2.5)">
     <path
        d="M13 8c0-2.76-2.46-5-5.5-5S2 5.24 2 8h2l1-1 1 1h4"
        class="stroke-primary-fg"
        stroke-width="2"
        stroke-linecap="round"
        stroke-linejoin="round"
        fill="none"
     />
     <path
         d="M13 7.14A5.82 5.82 0 0 1 16.5 6c3.04 0 5.5 2.24 5.5 5h-3l-1-1-1 1h-3"
         class="stroke-primary-fg"
         stroke-width="2"
         stroke-linecap="round"
         stroke-linejoin="round"
         fill="none"
     />
     <path
         d="M5.89 9.71c-2.15 2.15-2.3 5.47-.35 7.43l4.24-4.25.7-.7.71-.71 2.12-2.12c-1.95-1.96-5.27-1.8-7.42.35"
         class="stroke-primary-fg"
         stroke-width="2"
         stroke-linecap="round"
         stroke-linejoin="round"
         fill="none"
     />
     <path
         d="M11 15.5c.5 2.5-.17 4.5-1 6.5h4c2-5.5-.5-12-1-14"
         class="stroke-primary-fg"
         stroke-width="2"
         stroke-linecap="round"
         stroke-linejoin="round"
         fill="none"
     />
  </g>
</svg>
